<svg xmlns="http://www.w3.org/2000/svg" viewBox="0 0 437.72 436.89"><defs><style>.cls-1{fill:#649f0f;}</style></defs><g id="Layer_2" data-name="Layer 2"><g id="Layer_1-2" data-name="Layer 1"><path class="cls-1" d="M272.86,0c1.23.75,2.44,1.56,3.71,2.25,9.56,5.23,15,13.23,15,24.17q.24,45.75,0,91.49a26.87,26.87,0,0,1-27.14,26.9q-45.26.13-90.51,0c-15.77,0-27.67-11.39-27.81-27.3q-.41-45.49,0-91c.1-11.42,5.73-19.93,16.19-25A26.51,26.51,0,0,0,164.82,0Z"/><path class="cls-1" d="M365.4,145.17c14.67,0,29.33,0,44,0,16.8.07,28.27,11.52,28.29,28.27q0,44.49,0,89c0,16.41-11.51,28.18-27.9,28.25q-44.74.21-89.49,0c-16.41-.07-28.05-11.72-28.11-28.08q-.17-44.49,0-89c.06-16.94,11.8-28.43,28.73-28.46Q343.16,145.14,365.4,145.17Z"/><path class="cls-1" d="M291.66,364.07c0,14.82,0,29.65,0,44.48,0,16.6-11.7,28.26-28.38,28.3q-44,.09-88,0c-17.42,0-29.19-11.84-29.21-29.2q-.06-43.48,0-87c0-18,11.38-29.41,29.32-29.42q43.74,0,87.48,0c17.32,0,28.75,11.47,28.78,28.82Q291.7,342.07,291.66,364.07Z"/><path class="cls-1" d="M145.59,218.13c0,14.66,0,29.32,0,44-.05,16.72-11.34,28.45-28.11,28.56q-44.73.31-89.47,0C11.45,290.54.14,278.94.08,262.46Q-.08,218.24.08,174c.06-17.32,11.65-28.8,28.9-28.83q44-.06,88,0c17.1,0,28.55,11.41,28.63,28.47C145.65,188.48,145.59,203.31,145.59,218.13Z"/></g></g></svg>