<svg xmlns="http://www.w3.org/2000/svg" viewBox="0 0 436.45 436.59"><defs><style>.cls-1{fill:#649f0f;}</style></defs><g id="Layer_2" data-name="Layer 2"><g id="Layer_1-2" data-name="Layer 1"><path class="cls-1" d="M145.29,145.39V0c4.24,3.08,7.67,5.54,11.05,8.06,19.34,14.41,38.73,28.78,58,43.35,2.93,2.21,4.8,2.21,7.73,0C243.54,35.16,265.2,19.11,286.81,3,287.86,2.22,289,1.5,291,.05V145.39l.2-.14c-12.3-.05-24.61-.15-36.91-.14q-54.62,0-109.24.14Z"/><path class="cls-1" d="M145.24,291.19,6.36,291.1c-1.79,0-3.58,0-6.16,0,1.14-1.8,1.83-3,2.66-4.15C19,265.33,35,243.67,51.27,222.17c2.24-3,2.15-4.84,0-7.74C35,192.92,18.93,171.26,2.82,149.65,2,148.6,1.34,147.5,0,145.55H139.31c2,0,4-.1,6-.15l-.2-.14c-.05,12.13-.15,24.27-.14,36.41q0,54.87.14,109.73Z"/><path class="cls-1" d="M291,145.39l127.38.16H436c-.93,1.59-1.47,2.72-2.2,3.7-16.2,21.75-32.37,43.53-48.71,65.18-2.19,2.9-2.27,4.78,0,7.74,16.25,21.5,32.31,43.16,48.42,64.78.78,1.05,1.5,2.15,3,4.24H291.09l.15.2c.05-12.13.15-24.27.14-36.4q0-54.87-.14-109.74Z"/><path class="cls-1" d="M291.09,291.19l-.15,127.4v18c-2.79-2-4.89-3.47-6.94-5-20.67-15.42-41.39-30.79-62-46.35-2.92-2.22-4.8-2.22-7.73,0-21.52,16.24-43.17,32.3-64.79,48.42-1,.78-2.15,1.49-4.12,2.84V297.18c0-2-.1-4-.15-6l-.15.2c12.14.05,24.28.16,36.41.15q54.87,0,109.74-.15Z"/></g></g></svg>