<svg xmlns="http://www.w3.org/2000/svg" viewBox="0 0 433.5 434.8"><defs><style>.cls-1{fill:#649f0f;}</style></defs><g id="Layer_2" data-name="Layer 2"><g id="Layer_1-2" data-name="Layer 1"><path class="cls-1" d="M217.81,0c1.21,1.36,2.36,2.79,3.64,4.07q43.28,43.32,86.6,86.58a43.07,43.07,0,0,0,4.27,3.42l-95.64,95.64-95-94.95c.88-.93,2.16-2.37,3.53-3.73q43.45-43.48,86.92-87c1.29-1.28,2.43-2.71,3.64-4.07Z"/><path class="cls-1" d="M189,218.05,94.51,312.5,0,218C31.19,186.77,62.92,155,94.44,123.51Z"/><path class="cls-1" d="M338.85,312.2,245,218.3l94.68-94.68,93.87,93.91Z"/><path class="cls-1" d="M216.36,434.8l-94.15-94.15,94.14-94.14,94.15,94.17Z"/></g></g></svg>