<svg xmlns="http://www.w3.org/2000/svg" viewBox="0 0 436.49 436.54"><defs><style>.cls-1{fill:#649f0f;}</style></defs><g id="Layer_2" data-name="Layer 2"><g id="Layer_1-2" data-name="Layer 1"><path class="cls-1" d="M0,435.6c-2.11-96.54,71.9-205.79,199.22-218.2-6.15-1-12.35-1.83-18.45-3.12Q49.69,186.36,9.48,58.43a184.63,184.63,0,0,1-8-49.14c-.25-7,2.39-10,9.59-9.15,14.67,1.69,29.54,3,43.83,6.47,45.74,11.25,83.7,35.55,113.92,71.63,27.32,32.62,43.3,70.35,49.06,112.45.2,1.48.18,3,.26,4.49a11.26,11.26,0,0,0,.78,4.17c6.62-55.49,29.59-102.75,70.76-140.56C331.05,20.77,380.25,2.22,436.31,1,440.47,88.07,372,205.56,237.5,219,293,225.61,340.24,248.57,378,289.79c38,41.41,56.41,90.61,57.62,146.65-91.71,3.22-205.23-68.06-218-199.22C211.16,292.75,188.19,340,147,377.85,105.6,415.84,56.43,434.36,0,435.6Z"/></g></g></svg>