<svg xmlns="http://www.w3.org/2000/svg" viewBox="0 0 437.48 437.42"><defs><style>.cls-1{fill:#649f0f;}</style></defs><g id="Layer_2" data-name="Layer 2"><g id="Layer_1-2" data-name="Layer 1"><path class="cls-1" d="M218.77,437.42c-7.23-.25-12.85-3.4-17.61-8.5C172.94,398.62,148.67,365.55,131,328a43,43,0,0,0-21.65-21.58c-37.7-17.8-70.86-42.25-101.25-70.59-10.85-10.12-10.73-24.25.36-34.61,29.63-27.68,61.93-51.67,98.66-69.09,11.65-5.53,19.51-13.29,25-25C149.61,70.1,174,37.64,201.85,7.78,211.62-2.69,226-2.56,235.79,8c28.46,30.5,53,63.79,70.85,101.65a41.58,41.58,0,0,0,20.86,21c37.72,17.75,71,42.06,101.37,70.41,11.67,10.88,11.41,24.68-.37,35.62-31.08,28.87-65.19,53.34-103.64,71.49A33.93,33.93,0,0,0,308,325.13c-18.08,38.3-42.43,72.29-71.22,103.22C231.81,433.73,226.08,437.23,218.77,437.42Zm-.19-299.62c-44.55.32-80.81,36.65-80.77,80.91s36.32,81,80.8,80.79c45.64-.22,81.09-36.1,80.87-81.07C299.26,172.6,263,138.35,218.58,137.8Z"/></g></g></svg>