<svg xmlns="http://www.w3.org/2000/svg" viewBox="0 0 437.46 437.53"><defs><style>.cls-1{fill:#649f0f;}</style></defs><g id="Layer_2" data-name="Layer 2"><g id="Layer_1-2" data-name="Layer 1"><path class="cls-1" d="M437.46,159.26c.16,20.33-9.36,35.92-23.84,49.2-11.77,10.79-23.95,21.21-34.82,32.86-8.86,9.5-12.35,21.84-12.53,35-.51,35.82-4.19,71.15-17.69,104.75-6.78,16.88-16.11,32.12-30.9,43.39-25.09,19.1-60.33,17.24-82.62-5-10.71-10.7-20.18-22.61-30.64-33.57-12.26-12.84-27.23-19.58-45.35-19.69C128,366,97.29,362.56,67.58,352.65c-17.58-5.86-33.82-13.93-47.4-26.82-24-22.75-28.8-64-2.36-90.56,9.16-9.19,19.28-17.4,29-26.06,11.95-10.69,21.53-23,23.64-39.38,1.31-10.21.9-20.63,1.57-30.93,2.12-32.42,7.22-64.21,22-93.6,7.76-15.4,18-29,33.55-37.31,27.83-14.87,59.87-8.56,80.54,15.4C216.59,33.23,225,43.17,234,52.51c11.84,12.26,26.4,18.59,43.72,18.75,31.25.28,62.11,3.51,92,13.48C389.07,91.21,407,100,420.9,115.47,432.1,127.89,437.32,142.64,437.46,159.26ZM218.83,299.93a81.21,81.21,0,1,0-81.29-81.25A81,81,0,0,0,218.83,299.93Z"/></g></g></svg>