<svg xmlns="http://www.w3.org/2000/svg" viewBox="0 0 427.3 427.88"><defs><style>.cls-1{fill:#649f0f;}</style></defs><g id="Layer_2" data-name="Layer 2"><g id="Layer_1-2" data-name="Layer 1"><path class="cls-1" d="M339.33,427.37c-30.81-43.78-71.67-69.88-126.21-69.77-54.28.11-94.88,26.32-124.9,70.28,3-12.86,6.59-25.51,8.73-38.4,1.65-9.93,2.75-20.29,1.83-30.24-1.87-20.42-13.6-30.33-34.17-30.66-20.22-.33-39.58,4.5-58.79,10.14a34.9,34.9,0,0,1-5.64,1.34c44.16-30.51,70.31-71.35,70.18-125.89-.12-54.36-26.24-95-70.36-125.54C3.94,89.79,7.87,91,11.84,92.09,16,93.22,20.2,94.3,24.42,95.25c14.63,3.29,29.35,6.53,44.45,4.7,20.3-2.46,30.2-13.86,30.53-34.47.33-20.23-4.68-39.56-10.1-58.81A55,55,0,0,1,87.82.88c30.25,44.27,71.08,70.4,125.49,70.46S308.73,45.3,339.41,0c-2.38,9-4.66,17.05-6.58,25.16-3.45,14.6-6.63,29.34-4.86,44.43,2.43,20.58,13.94,30.54,34.76,30.81,20.22.27,39.55-4.7,58.79-10.2a42.81,42.81,0,0,1,5.78-1.39c-44.52,30.16-70.59,71.06-70.67,125.54s26,95.3,70.3,125.42c-12.93-3-25.58-6.61-38.47-8.75-9.93-1.65-20.28-2.74-30.24-1.83C338,331,327.93,343,327.57,363.41c-.34,19,4.09,37.29,9.12,55.45C337.48,421.72,338.45,424.54,339.33,427.37ZM213.86,295.71a81.23,81.23,0,1,0-81.6-81A81,81,0,0,0,213.86,295.71Z"/></g></g></svg>