<svg xmlns="http://www.w3.org/2000/svg" viewBox="0 0 437.02 424.13"><defs><style>.cls-1{fill:#649f0f;}</style></defs><g id="Layer_2" data-name="Layer 2"><g id="Layer_1-2" data-name="Layer 1"><path class="cls-1" d="M96.45,192.46C44.1,191.86.93,151.38,0,96.59-.86,44.14,42.09.67,95.45,0a95.83,95.83,0,0,1,97.09,94.82C193.08,148.52,150.42,191.86,96.45,192.46Z"/><path class="cls-1" d="M327.73,172.9q-31,0-62,0c-9.71,0-14.5-4.56-14.52-14.36q-.15-62.49,0-125c0-10,4.91-14.42,15-14.42q62,0,124,0c10.31,0,15,4.53,15,14.92q.12,62,0,124c0,10.41-4.64,14.85-15,14.86Q359,172.92,327.73,172.9Z"/><path class="cls-1" d="M166.75,347.42q0,31,0,62c0,10.32-4.29,14.68-14.5,14.69q-62.49.06-125,0c-9.92,0-14.34-4.47-14.35-14.4q0-62.49,0-125c0-9.51,5-14.43,14.56-14.44q62.24-.06,124.46,0c9.92,0,14.76,4.81,14.78,14.65C166.78,305.77,166.75,326.6,166.75,347.42Z"/><path class="cls-1" d="M334.77,424.12H249.82c-1.67,0-3.33,0-5,0-10.72-.46-16.1-9.53-10.79-18.89,10.68-18.82,21.68-37.45,32.56-56.16q28-48.12,56-96.26c2.36-4.07,5.27-7.23,10.23-7.89,6.78-.91,10.84,2.5,14,8.07,11.2,19.49,22.59,38.86,33.91,58.27,17.77,30.48,35.62,60.92,53.23,91.5,1.82,3.15,3.27,7.19,3,10.7-.46,6.78-5.44,10.58-12.77,10.63-19,.13-38,.06-57,.07Z"/></g></g></svg>