<svg xmlns="http://www.w3.org/2000/svg" viewBox="0 0 50 50"><defs><style>.cls-1{fill:#61a10f;}.cls-2{fill:#fff;}</style></defs><g id="Layer_2" data-name="Layer 2"><g id="Layer_1-2" data-name="Layer 1"><circle class="cls-1" cx="25" cy="25" r="25"/><path class="cls-2" d="M10,28l.91-.16c0-.61,0-1.26,0-1.91a1.1,1.1,0,0,1,.25-.66,8,8,0,0,1,6-2.64c.68,0,1.35,0,2,0a.8.8,0,0,0,.76-.35,16.23,16.23,0,0,1,3-3.18,11.68,11.68,0,0,1,6.45-2.28c0-.73,0-1.47,0-2.2a.61.61,0,0,1,.4-.67c.43-.2.84-.43,1.26-.64s.62-.17.62.4,0,.91,0,1.37a1.16,1.16,0,0,0,1.16.82c.74-.25.87-.43.87-1.23V13.51c0-.35.16-.47.48-.32.51.25,1,.51,1.52.79a.64.64,0,0,1,.25.44c0,.93,0,1.86,0,2.78,0,.17-.16.33-.27.48a.42.42,0,0,1-.22.11c-1.07.29-1.34,1-1.3,2.05.1,2.41,0,4.82,0,7.24,0,.33.07.56.41.65A1.77,1.77,0,0,1,36,30c-.08.48,0,1,0,1.46a.74.74,0,0,1-.29.52c-.45.28-1,.5-1.43.75s-.54.07-.53-.34,0-1,0-1.47a1.15,1.15,0,0,0-1.15-.83c-.75.24-.88.43-.88,1.22v1.12c0,.39-.2.47-.52.3L30,32.15l.22-.43,1,.46a15.08,15.08,0,0,1,0-1.52,1.49,1.49,0,0,1,.34-.59s.13-.05.18-.09c.82-.74,1.56-.26,2.27.19a.64.64,0,0,1,.21.46c0,.48,0,1,0,1.57.45-.23.81-.4,1.15-.61.08-.05.11-.22.11-.35,0-.72,0-1.45,0-2.17,0-.16-.18-.32-.27-.47a.16.16,0,0,0-.09-.05c-1.24-.31-1.47-1.13-1.43-2.33.1-2.51,0-5,0-7.55,0-.41.09-.69.5-.8a1.59,1.59,0,0,0,1.27-2.09,2.16,2.16,0,0,1,0-.36c0-1.15,0-1.15-1.27-1.59,0,.46,0,.88,0,1.31a.92.92,0,0,1-.47.84c-.87.67-1.6.33-2.34-.17a.67.67,0,0,1-.22-.45c0-.49,0-1,0-1.59-.45.23-.82.4-1.17.61-.08,0-.11.23-.11.35,0,.72,0,1.45,0,2.18,0,.15.18.31.28.46a.1.1,0,0,0,.08,0c1.19.33,1.48,1.09,1.43,2.29-.11,2.51,0,5,0,7.55a.79.79,0,0,1-.56.88c-.22.08-.42.22-.63.31-.39.16-.71.34-.6.84,0,0,0,.12,0,.14-.56.45-.62.9,0,1.39,0,0,0,.25-.11.34s-.4.41-.6.61c-.5.5-.49.48-1.07.08a.54.54,0,0,0-.48,0c-.13.06-.29.25-.28.37.05.54-.2.7-.69.64a5.23,5.23,0,0,0-.56,0c-.69,0-.67,0-.81-.71,0-.14-.24-.28-.4-.34a.43.43,0,0,0-.41.08c-.34.42-.64.37-.92,0A2,2,0,0,0,21.32,31a2.36,2.36,0,0,1-.46,0,2.26,2.26,0,0,0-2.15.84,3.31,3.31,0,0,1-5.18-.43.81.81,0,0,0-.82-.41c-.7,0-1.41,0-2.12,0a4,4,0,0,1-.59-.1Zm1.44-.1c.51,0,1,0,1.48,0a.73.73,0,0,0,.51-.28,3.45,3.45,0,0,1,5.81,0,.74.74,0,0,0,.51.27,6.9,6.9,0,0,0,2.71-.22c.21-.09.41-.05.54-.33a.47.47,0,0,0-.18-.65c-.27-.22-.26-.43,0-.66s.51-.49.75-.75.43-.31.67,0,.31.35.64.21a.49.49,0,0,0,.32-.59c0-.35.14-.49.48-.48s.71,0,1.06,0,.52.1.49.47a.48.48,0,0,0,.31.59.47.47,0,0,0,.64-.18c.23-.27.44-.27.67,0s.49.52.75.75.28.47,0,.7a.44.44,0,0,0-.16.61.51.51,0,0,0,.54.33,3.87,3.87,0,0,1,.68.18c.39-.07.51-.39.51-.88,0-2.55,0-5.1,0-7.65v-.58c-2.86-.66-6.9.66-8,2.56,1.42.16,1.53.25,1.54,1.36h5.6v.5H21.59a.44.44,0,0,1-.33-.16,1.18,1.18,0,0,1,.85-1.66.91.91,0,0,0,.54-.28A8,8,0,0,1,29,18.08h1.19a2.68,2.68,0,0,0-.76-.53,1.22,1.22,0,0,0-.58-.22,10.71,10.71,0,0,0-5,1.65,15.16,15.16,0,0,0-3.68,3.73.87.87,0,0,1-.77.37c-1.18,0-2.36,0-3.54.11a5.58,5.58,0,0,0-2.59,1h.61c.54,0,.63.13.48.64A1.44,1.44,0,0,1,13,25.86c-.5,0-1,0-1.51,0Zm18.2.29c-.42.06-.5-.35-.72-.72a.74.74,0,0,1,.21-1.05l-.7-.74c-.27.47-.6.42-1.09.25a.78.78,0,0,1-.62-1h-1c.17.6-.18.75-.61,1A.74.74,0,0,1,24,25.71l-.81.64c.57.31.42.67.29,1.13s-.53.65-1,.63v1c.52-.1.77.1,1,.59s.19.84-.24,1.15l.71.76c.31-.56.65-.45,1.15-.28a.82.82,0,0,1,.62,1h1c-.1-.55.1-.79.62-1s.84-.14,1.08.19l.72-.65c-.43-.51-.44-.52-.18-1.13.12-.27.26-.53.38-.8S29.54,28.4,29.64,28.14Zm-10.4,1.29a2.91,2.91,0,1,0-2.91,2.92A2.88,2.88,0,0,0,19.24,29.43Zm2.7-1.06H19.8v2.11c1,0,2,0,2.95,0a.59.59,0,0,0,.32-.27c-.1-.21-.21-.52-.38-.57-.71-.2-.72-.18-.73-.94C22,28.59,22,28.5,21.94,28.37Zm-9.08,2.09V28.38H10.54v2.08Zm8.9-7.88H23.7c.29,0,.52-.09.51-.42s-.23-.4-.52-.4H22.38C21.77,21.77,21.66,21.89,21.76,22.58Zm-7.83,2.1a2.55,2.55,0,0,0-2,.64C12.63,25.3,13.41,25.61,13.93,24.68Z"/><path class="cls-2" d="M26.19,26.59a2,2,0,1,1-2,2.05A2,2,0,0,1,26.19,26.59ZM24.7,28.37a1.55,1.55,0,0,0,.8,1.57,1.49,1.49,0,0,0,1.65-.15,1.39,1.39,0,0,0,.54-1.42ZM25,27.8h2.48A1.45,1.45,0,0,0,25,27.8Z"/><path class="cls-2" d="M18.2,29.43a1.87,1.87,0,0,1-3.74,0,1.87,1.87,0,1,1,3.74,0Zm-1.89,1.35a1.37,1.37,0,1,0,.05-2.73,1.37,1.37,0,1,0-.05,2.73Z"/></g></g></svg>