<svg xmlns="http://www.w3.org/2000/svg" viewBox="0 0 85.09 56.74"><g id="Layer_2" data-name="Layer 2"><g id="Layer_1-2" data-name="Layer 1"><g id="Layer_2-2" data-name="Layer 2"><g id="Layer_1-2-2" data-name="Layer 1-2"><path d="M54.16,33.13H7.9c-.84,0-1.67,0-2.52,0C1.9,32.94,0,31.21,0,28.31s2-4.5,5.53-4.66c.84,0,1.68,0,2.52,0,1.89,0,31-.22,56.65,0l3.86,0C61.27,16.44,56,10.86,53.73,8.51a5.81,5.81,0,0,1-1.84-3.92A4.62,4.62,0,0,1,53,1.8a4.43,4.43,0,0,1,6.69-.5q12.13,11.91,24,24c1.93,2,1.67,4.46-.29,6.49Q72,43.45,60.33,55c-2.3,2.28-4.93,2.34-7,.38a4.55,4.55,0,0,1-1.44-2.71c-.22-1.78.94-3.3,1.71-4.22A198.53,198.53,0,0,1,69.13,33.13Z"/></g></g></g></g></svg>