<svg xmlns="http://www.w3.org/2000/svg" viewBox="0 0 50 50"><defs><style>.cls-1{fill:#61a10f;}.cls-2{fill:#fff;}</style></defs><g id="Layer_2" data-name="Layer 2"><g id="Layer_1-2" data-name="Layer 1"><circle class="cls-1" cx="25" cy="25" r="25"/><path class="cls-2" d="M32.15,19.28h-4c-.16,0-.37,0-.49,0s-.08-.32-.11-.48a6.58,6.58,0,0,0-13,.69,6.47,6.47,0,0,0,2.61,5.65.61.61,0,0,1,.23.31c.34,1,.7,2.06,1,3.08a.81.81,0,0,0,.92.67H30.54a.81.81,0,0,0,.94-.78c.51-2.69,1-5.38,1.54-8.07A.8.8,0,0,0,32.15,19.28Zm-7.44-3.94a5.79,5.79,0,0,1,2.14,3.94c0,.16,0,.2-.18.2-.47,0-.93,0-1.4,0H23.92c-.13,0-.18,0-.18-.17a13.66,13.66,0,0,0-.49-3.24c0-.12,0-.15.11-.19a3.91,3.91,0,0,0,1.11-.53A.16.16,0,0,1,24.71,15.34Zm-4.92,7.89c-.17,0-.23,0-.26-.18a15.39,15.39,0,0,1-.33-2.62c0-.15.05-.18.18-.17h3.39c.13,0,.19,0,.19.17a14.47,14.47,0,0,1-.35,2.69c0,.12-.06.15-.2.12A7.68,7.68,0,0,0,19.79,23.23Zm2.51.92a3.3,3.3,0,0,1-.74,1.23.6.6,0,0,1-1,0,3.27,3.27,0,0,1-.73-1.23c-.07-.15,0-.15.12-.16a6,6,0,0,1,1-.06,6.55,6.55,0,0,1,1.19.08C22.28,24,22.35,24,22.3,24.15Zm.75.21c0-.1.07-.14.19-.09a3.47,3.47,0,0,1,.93.49,5.59,5.59,0,0,1-1.66.71A5.4,5.4,0,0,0,23.05,24.36Zm.46-.83c-.13,0-.17-.09-.14-.24a12.65,12.65,0,0,0,.36-2.81c0-.2.07-.23.25-.23.44,0,.89,0,1.34,0s.88,0,1.32,0c.18,0,.23.05.21.22a5.79,5.79,0,0,1-1.46,3.27l0,0c-.17.16-.31.39-.51.46s-.35-.21-.54-.31A5.46,5.46,0,0,0,23.51,23.53Zm.36-8.75a3.93,3.93,0,0,1-.82.37c-.08,0-.12,0-.15-.06a6.81,6.81,0,0,0-.48-.86A5.55,5.55,0,0,1,23.87,14.78Zm-3.22-.37a.57.57,0,0,1,.84,0,2.42,2.42,0,0,1,.61.84c.08.16-.05.13-.13.14a7.77,7.77,0,0,1-1,.06,7.12,7.12,0,0,1-1-.07A2.48,2.48,0,0,1,20.65,14.41Zm-.73,1.73a7.14,7.14,0,0,0,2.26,0c.2,0,.28,0,.34.21a13.55,13.55,0,0,1,.43,2.9c0,.17,0,.23-.21.23-.55,0-1.11,0-1.67,0s-1.11,0-1.67,0c-.17,0-.2-.05-.19-.21a13.31,13.31,0,0,1,.44-2.95C19.69,16.15,19.76,16.12,19.92,16.14Zm-.19-1.9a5.58,5.58,0,0,0-.47.86c0,.09-.09.1-.18.07a3.42,3.42,0,0,1-.82-.36A5.47,5.47,0,0,1,19.73,14.24Zm-4.41,5a5.87,5.87,0,0,1,2.07-3.88.2.2,0,0,1,.29,0,3.71,3.71,0,0,0,1.11.5c.11,0,.15.08.11.21a13.24,13.24,0,0,0-.48,3.19c0,.16-.06.19-.2.18H16.85c-.45,0-.9,0-1.35,0C15.34,19.48,15.31,19.44,15.32,19.28Zm1.88,4.87a5.81,5.81,0,0,1-1.84-3.45c-.06-.44,0-.44.39-.44h2.5c.12,0,.17,0,.17.16a13.29,13.29,0,0,0,.37,2.88c0,.13,0,.16-.12.19a4.07,4.07,0,0,0-1.27.67C17.32,24.24,17.27,24.21,17.2,24.15Zm1.72.08c.1,0,.14,0,.17.08a5,5,0,0,0,.55,1.15A5.6,5.6,0,0,1,18,24.73,3.53,3.53,0,0,1,18.92,24.23Zm13.31-4c-.3,1.59-.61,3.18-.91,4.77-.2,1-.4,2-.58,3,0,.24-.11.33-.38.33-3.64,0-7.27,0-10.91,0a.28.28,0,0,1-.32-.24c-.25-.76-.52-1.52-.79-2.33a6.8,6.8,0,0,0,3.12.58,6.58,6.58,0,0,0,6.08-5.3,4.51,4.51,0,0,0,.11-.89c0-.14.05-.17.18-.17q2.13,0,4.26,0C32.3,20.06,32.25,20.16,32.23,20.27Z"/><path class="cls-2" d="M39.34,16.92l-.48-.82a1,1,0,0,0-1.41-.37L35.19,17a1,1,0,0,0-.38,1.4.82.82,0,0,1,.09.61l-1.23,7.47c0,.29.07.47.3.51s.42-.09.47-.39c.25-1.5.5-3,.74-4.49l.42-2.51a1.08,1.08,0,0,0,1.21-.1c.72-.41,1.44-.82,2.15-1.24A1,1,0,0,0,39.34,16.92Zm-.79.7-2.28,1.32a.18.18,0,0,1-.29-.08c-.16-.27-.32-.54-.49-.81a.2.2,0,0,1,.08-.33l2.3-1.33.11-.05a.26.26,0,0,1,.2.15l.46.8A.2.2,0,0,1,38.55,17.62Z"/><path class="cls-2" d="M25.71,31.37h-6c-.37,0-.41.05-.42.42,0,.11,0,.23,0,.35a.38.38,0,0,1-.4.33.34.34,0,0,1-.36-.34,4.09,4.09,0,0,1,0-.7,1,1,0,0,1,.87-.83c.1,0,.2,0,.3,0q5.91,0,11.8,0a1.7,1.7,0,0,0,1.77-1.38c.07-.28.26-.42.5-.36a.41.41,0,0,1,.27.54,2.46,2.46,0,0,1-2.45,2H25.71Z"/><path class="cls-2" d="M22.36,32a2.34,2.34,0,1,0,2.33,2.36A2.35,2.35,0,0,0,22.36,32Zm0,3.9a1.56,1.56,0,1,1,1.58-1.56A1.57,1.57,0,0,1,22.32,35.93Z"/><path class="cls-2" d="M29.86,32a2.34,2.34,0,1,0,2.34,2.33A2.32,2.32,0,0,0,29.86,32Zm0,3.9a1.56,1.56,0,1,1,1.56-1.56A1.59,1.59,0,0,1,29.87,35.93Z"/></g></g></svg>