<svg xmlns="http://www.w3.org/2000/svg" viewBox="0 0 50 50"><defs><style>.cls-1{fill:#61a10f;}.cls-2{fill:#fff;}</style></defs><g id="Layer_2" data-name="Layer 2"><g id="Layer_1-2" data-name="Layer 1"><circle class="cls-1" cx="25" cy="25" r="25"/><path class="cls-2" d="M38.67,21,25.56,17.33a1.93,1.93,0,0,0-1.09,0c-2.85.8-5.71,1.57-8.57,2.36L11.12,21c-.28.07-.52.18-.54.5s.22.46.5.52.36.1.54.15L18.09,24a9.21,9.21,0,0,0-1.75,4.79.91.91,0,0,0,.7,1.07c2.47.85,4.93,1.71,7.39,2.6a1.65,1.65,0,0,0,1.16,0c2.28-.82,4.58-1.62,6.86-2.43,1.34-.47,1.35-.51,1.14-2A9.24,9.24,0,0,0,31.91,24l3.68-1c0,1.77,0,3.45,0,5.13a1.09,1.09,0,0,1-.44,1,1.31,1.31,0,0,0-.07,2.09,1,1,0,0,1,.35,1c-.25,1.69-.49,3.38-.74,5.07-.14.93,0,1,.86,1h1c.88,0,1-.13.86-1-.25-1.74-.49-3.48-.75-5.23a.85.85,0,0,1,.31-.89,1.36,1.36,0,0,0-.1-2.21.87.87,0,0,1-.37-.8c0-1.09,0-2.19,0-3.28,0-.75-.22-1.67.13-2.18s1.31-.45,2-.67c.31-.1.75-.11.75-.58S39,21,38.67,21Zm-6,7.57c.06.29-.11.41-.37.5-2.34.82-4.68,1.64-7,2.48a1.07,1.07,0,0,1-.77-.07c-2.21-.78-4.42-1.57-6.64-2.33-.47-.16-.62-.37-.54-.86a8.73,8.73,0,0,1,1.32-3.41.84.84,0,0,1,1.1-.42c1.4.44,2.83.77,4.23,1.21a3.43,3.43,0,0,0,2,0c1.45-.44,2.93-.81,4.39-1.23.27-.07.47-.13.69.15A8.14,8.14,0,0,1,32.68,28.52Zm3.41,8.89c-.33,0-.41-.13-.36-.44.09-.62.16-1.25.25-1.88h.17c.09.64.17,1.29.26,1.93C36.45,37.27,36.38,37.4,36.09,37.41Zm.44-7.15a.46.46,0,0,1-.51.4c-.28-.07-.47-.24-.42-.55a.47.47,0,0,1,.93.15Zm-1.08-8.45-9.74-.72c-.14,0-.27,0-.4,0-.38,0-.75,0-.77.46s.34.48.68.5l4.07.3,3.48.24v.17l-7.54,2.08a1,1,0,0,1-.62,0L13.28,21.65s-.07-.06-.19-.17l4.32-1.21,6.94-1.91a1.62,1.62,0,0,1,.93-.11C29.13,19.33,33,20.38,37,21.47A2.18,2.18,0,0,1,35.45,21.81Z"/></g></g></svg>