<svg xmlns="http://www.w3.org/2000/svg" viewBox="0 0 50 50"><defs><style>.cls-1{fill:#61a10f;}.cls-2{fill:#fff;}</style></defs><g id="Layer_2" data-name="Layer 2"><g id="Layer_1-2" data-name="Layer 1"><circle class="cls-1" cx="25" cy="25" r="25"/><path class="cls-2" d="M31.3,30.1V19c0-.09,0-.19,0-.27a.69.69,0,0,0-.57-.68H18.88a.79.79,0,0,0-.6.89V30.12a3,3,0,0,0,0,.31.75.75,0,0,0,.64.62.52.52,0,0,1,.3,0H30.41a.61.61,0,0,1,.3,0,.68.68,0,0,0,.63-.67C31.27,30.28,31.3,30.19,31.3,30.1Zm-4.94-2.27a2.58,2.58,0,0,1-.8.3c-.16,0-.21.09-.2.25s0,.45,0,.68-.08.37-.34.33a1,1,0,0,0-.25,0c-.58,0-.58,0-.58-.57s0-.54-.54-.61a4.27,4.27,0,0,1-1.3-.36c-.14-.06-.19-.12-.14-.28.1-.32.18-.65.25-1s.12-.18.27-.12a3.56,3.56,0,0,0,2.19.38.76.76,0,0,0,.7-.57.74.74,0,0,0-.46-.82,4.63,4.63,0,0,0-.79-.35,5.29,5.29,0,0,1-1.21-.55,1.93,1.93,0,0,1-.07-3.25,2.18,2.18,0,0,1,.86-.4c.26,0,.33-.17.3-.42s0-.35,0-.52.07-.29.27-.27a5.3,5.3,0,0,0,.69,0c.16,0,.2.06.2.22s-.11.61,0,.78.48.09.73.14c1,.17,1,.17.73,1.11-.13.5-.12.49-.61.33a3.1,3.1,0,0,0-1.68-.15.63.63,0,0,0-.56.49.6.6,0,0,0,.35.66,5.18,5.18,0,0,0,1.07.49,6.07,6.07,0,0,1,.9.41A2.08,2.08,0,0,1,26.36,27.83Z"/><path class="cls-2" d="M28.12,16.38c0,.65,0,.65-.67.65s-.62,0-.62-.63c0-.15,0-.31,0-.46s0-.3.22-.27.13-.11.14-.21l.06-1.82c0-.15,0-.27.22-.28s.22.11.22.27c0,.59,0,1.19.07,1.79,0,.08,0,.22,0,.23.55,0,.23.44.32.67Z"/><path class="cls-2" d="M33,27.83c-.67,0-.67,0-.67-.67s0-.61.61-.61h.41c.17,0,.38-.06.35.25,0,.15.13.1.21.1l1.82.07c.16,0,.27,0,.27.22s-.13.21-.27.22l-1.79.06c-.15,0-.28,0-.25.21s-.06.16-.17.15Z"/><path class="cls-2" d="M33,19.88c-.69,0-.69,0-.69-.69s0-.6.61-.6c.17,0,.33,0,.5,0s.28,0,.25.21.14.15.24.15l1.82.07c.15,0,.25,0,.25.2s-.09.23-.26.24c-.61,0-1.21,0-1.82.06-.08,0-.23,0-.22.09,0,.34-.19.26-.37.27Z"/><path class="cls-2" d="M16.62,27.83h-.41c-.15,0-.28,0-.26-.21s-.14-.14-.24-.14c-.61,0-1.22-.06-1.82-.07-.16,0-.24,0-.24-.22s.07-.22.24-.22c.61,0,1.23,0,1.85-.06.14,0,.25,0,.22-.2s.05-.16.16-.16h1c.13,0,.18,0,.18.18q0,.45,0,.9c0,.16-.05.22-.21.2Z"/><path class="cls-2" d="M16.64,29.2c.68,0,.68,0,.68.69s0,.6-.59.6H16.3c-.18,0-.38.06-.35-.26,0-.15-.16-.1-.24-.1q-.92,0-1.83-.06c-.16,0-.23,0-.23-.22s.07-.22.23-.23q.91,0,1.83-.06c.08,0,.24,0,.23-.07,0-.43.29-.26.48-.29Z"/><path class="cls-2" d="M33,30.49c-.68,0-.68,0-.68-.69s0-.6.59-.6c.17,0,.33,0,.5,0s.3,0,.28.23.12.12.22.13c.61,0,1.23.05,1.85.06.17,0,.22.05.23.23s-.08.21-.24.22c-.61,0-1.21,0-1.82.06-.08,0-.22,0-.22.05,0,.55-.43.22-.65.31Z"/><path class="cls-2" d="M20.16,16.35c0,.68,0,.68-.69.68s-.59,0-.59-.59v-.53c0-.15,0-.26.2-.24s.15-.12.15-.23c0-.61.05-1.22.07-1.82,0-.14,0-.26.2-.25s.24.07.24.25c0,.61,0,1.21.07,1.82,0,.08,0,.22.06.22.47,0,.24.33.29.53A.86.86,0,0,1,20.16,16.35Z"/><path class="cls-2" d="M30.77,16.36c0,.67,0,.67-.66.67s-.63,0-.63-.63c0-.16,0-.33,0-.49s0-.26.21-.24.15-.13.15-.23c0-.61.06-1.21.07-1.82,0-.17,0-.26.23-.25s.21.09.21.24l.06,1.82c0,.15,0,.28.21.25s.16,0,.15.16Z"/><path class="cls-2" d="M16.64,18.59c.68,0,.68,0,.68.69s0,.6-.59.6h-.5c-.16,0-.31,0-.28-.23s-.12-.12-.21-.13l-1.82-.06c-.16,0-.27,0-.27-.23s.12-.21.27-.21L15.71,19c.08,0,.22,0,.22-.05,0-.55.42-.22.64-.31C16.59,18.58,16.61,18.59,16.64,18.59Z"/><path class="cls-2" d="M20.16,32.73v.49c0,.13,0,.21-.16.19s-.19.09-.2.22c0,.62-.05,1.23-.06,1.85,0,.17,0,.23-.22.23s-.22-.07-.22-.23c0-.62,0-1.24-.07-1.85,0-.09,0-.23-.1-.22-.32.05-.25-.17-.25-.34s0-.56,0-.83.06-.2.2-.2a7.66,7.66,0,0,0,.83,0c.2,0,.29.05.26.26S20.16,32.59,20.16,32.73Z"/><path class="cls-2" d="M28.12,32.74c0,.17,0,.33,0,.5s0,.19-.15.17-.21.09-.21.24c0,.58,0,1.17-.07,1.76,0,.14.06.3-.21.3s-.22-.17-.23-.32l-.06-1.76c0-.14,0-.25-.2-.22s-.16,0-.16-.16q0-.51,0-1c0-.13,0-.19.18-.19h.93c.13,0,.19,0,.18.18S28.12,32.57,28.12,32.74Z"/><path class="cls-2" d="M30.77,32.74v.5c0,.11,0,.19-.14.17s-.21.08-.22.23l-.06,1.82c0,.15,0,.25-.21.25s-.23-.07-.23-.25c0-.6-.05-1.21-.06-1.82,0-.15,0-.26-.22-.23s-.15-.06-.15-.17q0-.51,0-1c0-.15.06-.18.19-.18h.92c.13,0,.19,0,.18.18Z"/><path class="cls-2" d="M25.46,16.36c0,.67,0,.67-.67.67s-.6,0-.6-.61V16c0-.15,0-.31.22-.28s.12-.14.12-.23c0-.59,0-1.19.07-1.79,0-.13,0-.28.21-.29s.23.14.23.29c0,.6.05,1.2.08,1.8,0,.07,0,.19,0,.2.54,0,.21.45.3.68Z"/><path class="cls-2" d="M22.81,16.36c0,.67,0,.67-.67.67s-.61,0-.61-.61c0-.14,0-.27,0-.4s-.07-.39.25-.35c.13,0,.09-.14.09-.22,0-.61.05-1.22.07-1.83,0-.13,0-.26.2-.25s.24.07.25.25c0,.61,0,1.22.06,1.82,0,.08,0,.23.06.22.46,0,.24.32.29.51A1.2,1.2,0,0,1,22.81,16.36Z"/><path class="cls-2" d="M16.65,21.25c.67,0,.67,0,.67.67s0,.61-.61.61H16.3c-.17,0-.38.06-.35-.25,0-.15-.13-.1-.21-.1l-1.82-.07c-.16,0-.27,0-.27-.23s.13-.2.27-.21l1.79-.07c.14,0,.28,0,.25-.2s.06-.16.16-.15Z"/><path class="cls-2" d="M21.53,32.73c0-.68,0-.68.69-.68s.59,0,.59.59c0,.18,0,.35,0,.53s0,.27-.2.24-.14.11-.15.2c0,.59,0,1.18-.07,1.76,0,.14.09.34-.21.34S22,35.55,22,35.4c0-.59,0-1.18-.07-1.76,0-.08,0-.22-.06-.22-.46,0-.24-.31-.28-.5A.61.61,0,0,1,21.53,32.73Z"/><path class="cls-2" d="M25.46,32.73c0,.15,0,.31,0,.46s0,.25-.19.22-.15.09-.15.19c0,.62-.06,1.24-.08,1.86,0,.16,0,.26-.23.25s-.2-.11-.21-.25c0-.61,0-1.23-.07-1.85,0-.08,0-.22-.11-.2s-.24-.11-.24-.27,0-.6,0-.9c0-.14,0-.21.19-.2h.41C25.46,32.05,25.46,32.05,25.46,32.73Z"/><path class="cls-2" d="M33,22.53c-.7,0-.7,0-.7-.71s0-.57.58-.57h.44c.17,0,.38-.07.35.25,0,.13.13.09.21.1l1.86.07c.16,0,.23,0,.23.22s-.09.22-.24.22l-1.83.07c-.13,0-.28,0-.24.2s0,.15-.17.15S33.2,22.53,33,22.53Z"/><path class="cls-2" d="M16.62,25.17h-.49c-.11,0-.19,0-.17-.15s-.08-.2-.22-.2l-1.82-.07c-.15,0-.28,0-.27-.22s.13-.22.27-.22l1.8-.07c.14,0,.27,0,.24-.21s.07-.14.17-.14c.33,0,.66,0,1,0,.15,0,.21,0,.2.19a7.85,7.85,0,0,0,0,.84c0,.22-.07.27-.26.25S16.77,25.18,16.62,25.17Z"/><path class="cls-2" d="M33,25.18c-.7,0-.7,0-.7-.69s0-.59.6-.59c.17,0,.35,0,.52,0s.27,0,.24.21.12.13.21.14l1.83.07c.14,0,.27,0,.27.22s-.12.21-.27.22l-1.79.07c-.14,0-.29,0-.25.2s-.06.15-.17.15Z"/><path class="cls-2" d="M30.77,18c-.09.1-.21.06-.32.06H19.2c-.1,0-.22,0-.32-.06a1.07,1.07,0,0,1,.4,0h11.1A1,1,0,0,1,30.77,18Z"/><path class="cls-2" d="M18.94,31.05c.09-.1.21-.06.32-.06H30.39c.11,0,.23,0,.32.05-.1,0-.2,0-.3,0H19.25Z"/><path class="cls-2" d="M31.34,30.37c-.11-.09-.07-.21-.07-.32V19c0-.11,0-.23.06-.32a2.48,2.48,0,0,1,0,.27v11.1C31.36,30.18,31.34,30.28,31.34,30.37Z"/></g></g></svg>