<svg xmlns="http://www.w3.org/2000/svg" viewBox="0 0 50 50"><defs><style>.cls-1{fill:#61a10f;}.cls-2{fill:#fff;}</style></defs><g id="Layer_2" data-name="Layer 2"><g id="Layer_1-2" data-name="Layer 1"><circle class="cls-1" cx="25" cy="25" r="25"/><path class="cls-2" d="M24.86,32.15c.34-.22.31-.54.36-.8a5.86,5.86,0,0,1,1.28-2.72A5.52,5.52,0,0,0,28,25.87c0-.11,0-.28.18-.27a.51.51,0,0,1,.29.19,1.84,1.84,0,0,1,.27,1.68,4.19,4.19,0,0,1-.24.62c-.11.29-.28.6,0,.86s.6.15.91.06a5.28,5.28,0,0,0,2-1.3,11.68,11.68,0,0,0,2.43-3.55c.07-.16.08-.48.36-.38s.1.32.08.49a7.88,7.88,0,0,1-2,4.4,17.34,17.34,0,0,1-3.34,2.82c-1.2.8-2.42,1.56-3.57,2.44-.15.11-.28.26-.52.07C23,32.62,21,31.56,19.25,30.11a9.49,9.49,0,0,1-3.36-4.88,4.91,4.91,0,0,1-.18-1.2c0-.1,0-.22.09-.27s.22.07.27.17c.21.42.4.85.62,1.26a10,10,0,0,0,2.5,3,4.6,4.6,0,0,0,1.61.84c.25.07.54.13.74-.1a.63.63,0,0,0,0-.75,3,3,0,0,1-.36-1.46,2.26,2.26,0,0,1,.1-.53c.1-.27.22-.62.53-.6s.18.39.24.6A4.9,4.9,0,0,0,23,28.05,6.86,6.86,0,0,1,24.86,32.15Z"/><path class="cls-2" d="M15.07,24a6,6,0,0,1,2.85-7.49,5.94,5.94,0,0,1,6.62,1c.31.3.49.39.86,0A5.9,5.9,0,0,1,32,16.48a6,6,0,0,1,3.26,5.73A5,5,0,0,1,34.9,24a8.2,8.2,0,0,0-.51-2.94,5,5,0,0,0-5.52-3.42,6.44,6.44,0,0,0-3.47,1.89c-.35.35-.53.3-.85,0a6.48,6.48,0,0,0-3.42-1.87A5,5,0,0,0,15.59,21,7.76,7.76,0,0,0,15.07,24Z"/><path class="cls-2" d="M27,23.5c.11.56-.12.81-.69.73s-.72.09-.63.61-.19.68-.69.65-.9.05-.77-.63-.17-.71-.67-.63-.66-.29-.67-.77.07-.82.65-.72.78-.14.69-.69.26-.64.72-.63.84,0,.74.61.07.81.67.71S27.11,23,27,23.5Z"/></g></g></svg>