<svg xmlns="http://www.w3.org/2000/svg" viewBox="0 0 50 50"><defs><style>.cls-1{fill:#61a10f;}.cls-2{fill:#fff;}</style></defs><g id="Layer_2" data-name="Layer 2"><g id="Layer_1-2" data-name="Layer 1"><circle class="cls-1" cx="25" cy="25" r="25"/><path class="cls-2" d="M29.82,28.29,26,20.7A1.1,1.1,0,0,0,25,20.05a1.17,1.17,0,0,0-1,.74q-1.83,3.69-3.68,7.38a1.16,1.16,0,0,0,.13,1.45,1.15,1.15,0,0,0,1.38.19c.92-.39,1.84-.76,2.74-1.18a1.15,1.15,0,0,1,1,0c.9.41,1.82.81,2.74,1.18A1.14,1.14,0,0,0,30,28.72,2.4,2.4,0,0,0,29.82,28.29Zm-4.1-.68a1.58,1.58,0,0,0-1.42,0c-1,.47-2.07.89-3.34,1.42l4-8.08L29,29C27.78,28.49,26.74,28.07,25.72,27.61Z"/><path class="cls-2" d="M23.23,36.07a11.18,11.18,0,0,1-6.68-3.71A11,11,0,0,1,14,27c-.07-.38-.23-.86.34-1s.59.37.67.75A10,10,0,0,0,23.14,35l.23.06c.36.05.63.2.58.6S23.58,36.11,23.23,36.07Z"/><path class="cls-2" d="M13.93,23.26a10.88,10.88,0,0,1,2.2-5.1A11.18,11.18,0,0,1,22.88,14a3.43,3.43,0,0,1,.55-.06.44.44,0,0,1,.51.38.47.47,0,0,1-.37.6c-.38.09-.78.15-1.15.26A10,10,0,0,0,15,23.06c0,.13-.07.26-.09.39,0,.34-.23.53-.58.5S13.92,23.71,13.93,23.26Z"/><path class="cls-2" d="M36.06,26.78A11.11,11.11,0,0,1,31.8,33.9,11,11,0,0,1,27,36c-.37.07-.86.23-1-.34s.39-.59.76-.68A10,10,0,0,0,35,26.85c0-.08,0-.15,0-.23,0-.37.21-.62.6-.57S36.12,26.42,36.06,26.78Z"/><path class="cls-2" d="M36.05,23.11c.05.51,0,.79-.39.84s-.56-.27-.63-.64A10.17,10.17,0,0,0,26.91,15a3.49,3.49,0,0,1-.54-.12.48.48,0,0,1-.32-.56.44.44,0,0,1,.5-.4,5.76,5.76,0,0,1,1,.17A11.11,11.11,0,0,1,36,22.91C36.05,23,36.05,23.17,36.05,23.11Z"/><path class="cls-2" d="M25.5,14.32v2.05c0,.33-.14.57-.49.58s-.51-.23-.51-.57V12.22c0-.34.18-.56.53-.54s.47.27.47.6Z"/><path class="cls-2" d="M14.32,25.51q-1,0-2,0c-.33,0-.58-.12-.59-.48s.24-.54.61-.54h4c.35,0,.64.1.63.51s-.3.5-.65.5C15.63,25.5,15,25.51,14.32,25.51Z"/><path class="cls-2" d="M35.66,25.51h-2c-.35,0-.65-.11-.64-.52s.3-.5.65-.49h4c.33,0,.58.12.59.47s-.24.54-.61.54Z"/><path class="cls-2" d="M25.5,35.66v2c0,.37-.13.63-.53.62s-.47-.27-.47-.6c0-1.34,0-2.67,0-4,0-.35.09-.65.5-.66s.51.29.51.64Z"/></g></g></svg>