<svg xmlns="http://www.w3.org/2000/svg" viewBox="0 0 50 50"><defs><style>.cls-1{fill:#61a10f;}.cls-2{fill:#fff;}</style></defs><g id="Layer_2" data-name="Layer 2"><g id="Layer_1-2" data-name="Layer 1"><circle class="cls-1" cx="25" cy="25" r="25"/><path class="cls-2" d="M27,12.85l2.44,2.3c.82.78,1.65,1.56,2.44,2.37a1.2,1.2,0,0,1,.33.73c0,.92,0,1.86,0,2.78,0,.37-.1.65-.51.65s-.55-.28-.55-.66V19c-.59,0-1.17,0-1.75,0a6.61,6.61,0,0,1-1.48-.21A2.63,2.63,0,0,1,26,16.19c0-.74,0-1.48,0-2.28h-6.3a1.67,1.67,0,0,0-1.89,1.88q0,7.8,0,15.6a1.67,1.67,0,0,0,1.89,1.88h9.5a1.79,1.79,0,0,0,1.83-1.06.48.48,0,0,1,.7-.28.5.5,0,0,1,.24.75,2.58,2.58,0,0,1-1.56,1.47l-.43.17H19a11.45,11.45,0,0,1-1.17-.56A2.83,2.83,0,0,1,16.77,32V15.12A3,3,0,0,1,19,12.85ZM30.67,18l0-.14-3.6-3.47c0,.74-.05,1.36,0,2a1.53,1.53,0,0,0,1.4,1.48C29.23,18,30,18,30.67,18Z"/><path class="cls-2" d="M37.77,21.84l-.87,1L35,20.74l-.1.1s0-.06,0-.08c1-1.11.92-1.1,1.94-.09l.9.89Z"/><path class="cls-2" d="M34.19,21.51l2,2c-.67.71-1.38,1.36-2,2.1a4,4,0,0,1-2.7,1.6,9.36,9.36,0,0,0-1.12.29c.45-1.22.28-2.54,1.36-3.47C32.64,23.25,33.37,22.37,34.19,21.51Zm-3.35,5.57,1.63-.45-1.28-1.22Z"/><path class="cls-2" d="M29.11,30.24l1.53-.42a13.77,13.77,0,0,1,3.84-.9,2.3,2.3,0,0,1,1.05.17,1.33,1.33,0,0,1,.53.71c0,.12-.15.41-.31.49a.54.54,0,0,1-.54-.08c-.3-.45-.69-.37-1.09-.26-1.17.34-2.33.74-3.52,1a8.47,8.47,0,0,1-2.13.22A1.57,1.57,0,0,1,27,30.11a1.82,1.82,0,0,1,.39-1.85A2.32,2.32,0,0,1,29,27.43a.55.55,0,0,1,.69.47c.06.39-.18.56-.53.64a2.59,2.59,0,0,0-.78.28.75.75,0,0,0-.37.89c.12.38.45.45.8.46h.24Z"/><path class="cls-2" d="M24.49,22.32H21.32c-.48,0-.73-.19-.7-.55s.33-.5.7-.5H27.7c.37,0,.67.07.71.5s-.22.55-.71.55Z"/><path class="cls-2" d="M24.22,24.74h2.92c.38,0,.69.09.69.52s-.32.54-.68.54H21.3c-.37,0-.68-.11-.68-.54s.31-.52.68-.52Z"/><path class="cls-2" d="M22.93,29.23h-1.7c-.35,0-.6-.12-.61-.49s.25-.56.61-.56h3.5a.51.51,0,0,1,.58.54c0,.38-.23.52-.59.51Z"/></g></g></svg>