<svg xmlns="http://www.w3.org/2000/svg" viewBox="0 0 50 50"><defs><style>.cls-1{fill:#61a10f;}.cls-2{fill:#fff;}</style></defs><g id="Layer_2" data-name="Layer 2"><g id="Layer_1-2" data-name="Layer 1"><circle class="cls-1" cx="25" cy="25" r="25"/><path class="cls-2" d="M21.68,23a9.1,9.1,0,0,1-.61.78,3.63,3.63,0,0,1-2.66,1.19,4.62,4.62,0,0,1-1.73-.2,3.8,3.8,0,0,1-2.52-3.24,4.73,4.73,0,0,1,.25-1.75c.41-1.37.81-2.75,1.22-4.13a.43.43,0,0,1,.48-.36H33.88a.45.45,0,0,1,.5.38c.44,1.49.88,3,1.31,4.49a3.73,3.73,0,0,1-2.88,4.74,4.38,4.38,0,0,1-2.87-.34,3.8,3.8,0,0,1-1.51-1.44,1,1,0,0,1-.09-.15,3.79,3.79,0,0,1-6.66,0ZM25,16.1h0c-2.84,0-5.68,0-8.51,0-.1,0-.14,0-.17.12-.38,1.32-.76,2.63-1.15,3.94A3.09,3.09,0,0,0,15,21.53a2.87,2.87,0,0,0,1.85,2.37,3.68,3.68,0,0,0,1.61.18,2.88,2.88,0,0,0,2.71-2.36c0-.2,0-.41.06-.61a.42.42,0,0,1,.84.06c0,.1,0,.2,0,.3a2.91,2.91,0,0,0,5.8-.28.42.42,0,0,1,.41-.43.42.42,0,0,1,.43.41.76.76,0,0,1,0,.15,2.91,2.91,0,0,0,2,2.61,4.08,4.08,0,0,0,1.39.16,2.9,2.9,0,0,0,2.77-3.73c-.4-1.39-.81-2.78-1.22-4.17a.11.11,0,0,0-.13-.1Z"/><path class="cls-2" d="M22.9,33.91H25a.41.41,0,0,1,.45.42.42.42,0,0,1-.45.42H17.16a1.3,1.3,0,0,1-1.36-1.36V26.54a.42.42,0,1,1,.84,0c0,.19,0,.38,0,.56,0,2.1,0,4.2,0,6.3a.51.51,0,0,0,.54.55H22V30.08a2.89,2.89,0,0,1,1.39-2.54,3,3,0,0,1,4.48,2A9.08,9.08,0,0,1,28,30.86v2.93a.57.57,0,0,0,0,.12h4.89a.47.47,0,0,0,.5-.51V26.55a.47.47,0,0,1,.14-.37.38.38,0,0,1,.45-.07.39.39,0,0,1,.25.39c0,.6,0,1.2,0,1.8,0,1.7,0,3.4,0,5.1a1.3,1.3,0,0,1-1.36,1.35H27.61a.43.43,0,0,1-.48-.31.77.77,0,0,1,0-.15V30A2.11,2.11,0,0,0,23,29.52a1.92,1.92,0,0,0-.07.48v3.8A.49.49,0,0,0,22.9,33.91Z"/></g></g></svg>