<svg xmlns="http://www.w3.org/2000/svg" viewBox="0 0 152.65 101.81"><defs><style>.cls-1{fill:#649f0f;}</style></defs><g id="Layer_2" data-name="Layer 2"><g id="Layer_1-2" data-name="Layer 1"><path class="cls-1" d="M97.18,59.45q-41.5,0-83,0c-1.51,0-3,.06-4.52,0C3.4,59.1,0,56,0,50.79s3.52-8.07,9.93-8.36c1.5-.07,3,0,4.52,0,3.38,0,55.59-.4,101.63,0l6.92.06c-13.07-13-22.62-23-26.59-27.23C95.26,14,93,11.49,93.1,8.23a8.24,8.24,0,0,1,2.07-5c3.09-3.76,8.31-4.47,12-.89q21.77,21.35,43.12,43.11c3.48,3.57,3,8-.52,11.64q-20.67,20.85-41.53,41.52c-4.12,4.08-8.84,4.2-12.49.68a8.13,8.13,0,0,1-2.58-4.86c-.4-3.2,1.69-5.92,3.07-7.57,4.16-5,14.17-15,27.79-27.41C112.48,59.44,103.18,59.45,97.18,59.45Z"/></g></g></svg>