<svg xmlns="http://www.w3.org/2000/svg" xmlns:xlink="http://www.w3.org/1999/xlink" viewBox="0 0 70 70"><defs><style>.cls-1{fill:none;}.cls-2{clip-path:url(#clip-path);}.cls-3{fill:#fff;fill-rule:evenodd;}</style><clipPath id="clip-path"><rect class="cls-1" width="70" height="70"/></clipPath></defs><g id="Layer_2" data-name="Layer 2"><g id="Layer_1-2" data-name="Layer 1"><g class="cls-2"><path class="cls-3" d="M35,64.3c2.37,2.85,4.75,5.7,9.5,5.7,10.93,0,14.09-14.54,14.1-25.5,0-4.75,2.85-7.12,5.7-9.5S70,30.25,70,25.5c0-10.94-14.57-14.1-25.5-14.1-4.75,0-7.12-2.85-9.5-5.7S30.25,0,25.5,0C14.56,0,11.4,14.56,11.4,25.5c0,4.75-2.85,7.12-5.7,9.5S0,39.75,0,44.5C0,55.44,14.56,58.6,25.5,58.6,30.25,58.6,32.62,61.45,35,64.3ZM35,48A13,13,0,1,0,22.05,35,13,13,0,0,0,35,48Z"/></g></g></g></svg>