<svg xmlns="http://www.w3.org/2000/svg" xmlns:xlink="http://www.w3.org/1999/xlink" viewBox="0 0 70 67.94"><defs><style>.cls-1{fill:none;}.cls-2{clip-path:url(#clip-path);}.cls-3{fill:#fff;}</style><clipPath id="clip-path" transform="translate(0 -1.03)"><rect class="cls-1" width="70" height="70"/></clipPath></defs><g id="Layer_2" data-name="Layer 2"><g id="Layer_1-2" data-name="Layer 1"><g class="cls-2"><path class="cls-3" d="M42.21,4.12H62.79a2,2,0,0,1,2.06,2.06V26.76a2,2,0,0,1-2.06,2.06H42.21a2,2,0,0,1-2.06-2.06V6.18a2,2,0,0,1,2.06-2.06ZM4.12,44.26H24.71a2.07,2.07,0,0,1,2.05,2.06V66.91A2,2,0,0,1,24.71,69H4.12a2,2,0,0,1-2.06-2.06V46.32a2.07,2.07,0,0,1,2.06-2.06Zm51.19-3.09,14.41,24.7A2.06,2.06,0,0,1,67.94,69H39.12a2.06,2.06,0,0,1-1.78-3.1l14.41-24.7A2.06,2.06,0,0,1,55.31,41.17ZM15.44,1A15.44,15.44,0,1,1,0,16.47,15.44,15.44,0,0,1,15.44,1Z" transform="translate(0 -1.03)"/></g></g></g></svg>