<svg xmlns="http://www.w3.org/2000/svg" viewBox="0 0 70 70"><defs><style>.cls-1{fill:#fff;fill-rule:evenodd;}</style></defs><g id="Layer_2" data-name="Layer 2"><g id="Layer_1-2" data-name="Layer 1"><path class="cls-1" d="M0,55.44C16.16,50.34,19.67,53.85,14.56,70,24,53.85,46,53.85,55.44,70,50.34,53.85,53.85,50.34,70,55.44,53.85,46,53.85,24,70,14.56,53.85,19.66,50.34,16.15,55.44,0,46,16.15,24,16.15,14.56,0,19.67,16.15,16.16,19.66,0,14.56,16.16,24,16.16,46,0,55.44ZM35,48A13,13,0,1,0,22.05,35,13,13,0,0,0,35,48Z"/></g></g></svg>