<svg xmlns="http://www.w3.org/2000/svg" viewBox="0 0 70 70"><defs><style>.cls-1{fill:#fff;fill-rule:evenodd;}</style></defs><g id="Layer_2" data-name="Layer 2"><g id="Layer_1-2" data-name="Layer 1"><path class="cls-1" d="M20.53,51.72a4.64,4.64,0,0,0-2.25-2.25A66.38,66.38,0,0,1,1.16,37.64a3.58,3.58,0,0,1,0-5.28A66.38,66.38,0,0,1,18.28,20.53a4.64,4.64,0,0,0,2.25-2.25A66.38,66.38,0,0,1,32.36,1.16a3.58,3.58,0,0,1,5.28,0A66.38,66.38,0,0,1,49.47,18.28a4.64,4.64,0,0,0,2.25,2.25A66.38,66.38,0,0,1,68.84,32.36a3.58,3.58,0,0,1,0,5.28A66.38,66.38,0,0,1,51.72,49.47a4.64,4.64,0,0,0-2.25,2.25A66.38,66.38,0,0,1,37.64,68.84a3.58,3.58,0,0,1-5.28,0A66.38,66.38,0,0,1,20.53,51.72ZM35,47.87A12.87,12.87,0,1,0,22.13,35,12.87,12.87,0,0,0,35,47.87Z"/></g></g></svg>