<svg xmlns="http://www.w3.org/2000/svg" xmlns:xlink="http://www.w3.org/1999/xlink" viewBox="0 0 70.06 70"><defs><style>.cls-1{fill:none;}.cls-2{clip-path:url(#clip-path);}.cls-3{fill:#fff;}</style><clipPath id="clip-path"><rect class="cls-1" width="70.06" height="70"/></clipPath></defs><g id="Layer_2" data-name="Layer 2"><g id="Layer_1-2" data-name="Layer 1"><g class="cls-2"><path class="cls-3" d="M42.28,0H27.78a4.4,4.4,0,0,0-4.43,4.42V18.93a4.4,4.4,0,0,0,4.43,4.42h14.5a4.4,4.4,0,0,0,4.42-4.42V4.42A4.43,4.43,0,0,0,42.28,0Z"/><path class="cls-3" d="M27.78,70h14.5a4.4,4.4,0,0,0,4.42-4.42V51.07a4.4,4.4,0,0,0-4.42-4.42H27.78a4.4,4.4,0,0,0-4.43,4.42V65.58A4.48,4.48,0,0,0,27.78,70Z"/><path class="cls-3" d="M46.7,27.72v14.5a4.4,4.4,0,0,0,4.43,4.43h14.5a4.4,4.4,0,0,0,4.43-4.43V27.72a4.4,4.4,0,0,0-4.43-4.42H51.13A4.43,4.43,0,0,0,46.7,27.72Z"/><path class="cls-3" d="M0,27.72v14.5a4.4,4.4,0,0,0,4.42,4.43H18.93a4.4,4.4,0,0,0,4.42-4.43V27.72a4.4,4.4,0,0,0-4.42-4.42H4.42A4.47,4.47,0,0,0,0,27.72Z"/></g></g></g></svg>