<svg xmlns="http://www.w3.org/2000/svg" xmlns:xlink="http://www.w3.org/1999/xlink" viewBox="0 0 62.78 62.78"><defs><style>.cls-1{fill:none;}.cls-2{clip-path:url(#clip-path);}.cls-3{fill:#fff;fill-rule:evenodd;}</style><clipPath id="clip-path"><rect class="cls-1" width="62.78" height="62.78"/></clipPath></defs><g id="Layer_2" data-name="Layer 2"><g id="Layer_1-2" data-name="Layer 1"><g class="cls-2"><path class="cls-3" d="M31.51,28.83A31.39,31.39,0,0,0,.22,0,31.4,31.4,0,0,0,28.83,31.27,31.39,31.39,0,0,0,0,62.56,31.4,31.4,0,0,0,31.27,34,31.39,31.39,0,0,0,62.56,62.78,31.4,31.4,0,0,0,34,31.51,31.39,31.39,0,0,0,62.78.22,31.4,31.4,0,0,0,31.51,28.83Zm-.12,2.56Z"/></g></g></g></svg>